<svg width="300" height="300" viewBox="0 0 300 300" xmlns="http://www.w3.org/2000/svg">
  <defs>
    <linearGradient id="cube1" x1="0%" y1="0%" x2="100%" y2="100%">
      <stop offset="0%" style="stop-color:#ff6b35;stop-opacity:0.9" />
      <stop offset="100%" style="stop-color:#f7931e;stop-opacity:0.9" />
    </linearGradient>
    <linearGradient id="cube2" x1="0%" y1="0%" x2="100%" y2="100%">
      <stop offset="0%" style="stop-color:#ff6b35;stop-opacity:0.9" />
      <stop offset="100%" style="stop-color:#9b59b6;stop-opacity:0.9" />
    </linearGradient>
    <linearGradient id="cube3" x1="0%" y1="0%" x2="100%" y2="100%">
      <stop offset="0%" style="stop-color:#9b59b6;stop-opacity:0.9" />
      <stop offset="100%" style="stop-color:#e74c3c;stop-opacity:0.9" />
    </linearGradient>
    <linearGradient id="cube4" x1="0%" y1="0%" x2="100%" y2="100%">
      <stop offset="0%" style="stop-color:#3498db;stop-opacity:0.9" />
      <stop offset="100%" style="stop-color:#16a085;stop-opacity:0.9" />
    </linearGradient>
    <linearGradient id="cube5" x1="0%" y1="0%" x2="100%" y2="100%">
      <stop offset="0%" style="stop-color:#3498db;stop-opacity:0.9" />
      <stop offset="50%" style="stop-color:#9b59b6;stop-opacity:0.9" />
      <stop offset="100%" style="stop-color:#e74c3c;stop-opacity:0.9" />
    </linearGradient>
    <linearGradient id="cube6" x1="0%" y1="0%" x2="100%" y2="100%">
      <stop offset="0%" style="stop-color:#9b59b6;stop-opacity:0.9" />
      <stop offset="100%" style="stop-color:#3498db;stop-opacity:0.9" />
    </linearGradient>
    <filter id="cubeGlow">
      <feGaussianBlur stdDeviation="3" result="coloredBlur"/>
      <feMerge>
        <feMergeNode in="coloredBlur"/>
        <feMergeNode in="SourceGraphic"/>
      </feMerge>
    </filter>
  </defs>
  <!-- Cube 1 - Top Left -->
  <g transform="translate(30, 30) rotate(15)">
    <rect x="0" y="0" width="50" height="50" rx="5" fill="url(#cube1)" filter="url(#cubeGlow)" opacity="0.85"/>
    <rect x="10" y="10" width="50" height="50" rx="5" fill="url(#cube1)" filter="url(#cubeGlow)" opacity="0.6"/>
  </g>
  <!-- Cube 2 - Top Middle -->
  <g transform="translate(120, 20) rotate(-10)">
    <rect x="0" y="0" width="50" height="50" rx="5" fill="url(#cube2)" filter="url(#cubeGlow)" opacity="0.85"/>
    <rect x="10" y="10" width="50" height="50" rx="5" fill="url(#cube2)" filter="url(#cubeGlow)" opacity="0.6"/>
  </g>
  <!-- Cube 3 - Top Right -->
  <g transform="translate(210, 40) rotate(20)">
    <rect x="0" y="0" width="50" height="50" rx="5" fill="url(#cube3)" filter="url(#cubeGlow)" opacity="0.85"/>
    <rect x="10" y="10" width="50" height="50" rx="5" fill="url(#cube3)" filter="url(#cubeGlow)" opacity="0.6"/>
  </g>
  <!-- Cube 4 - Middle Left -->
  <g transform="translate(50, 120) rotate(-15)">
    <rect x="0" y="0" width="50" height="50" rx="5" fill="url(#cube4)" filter="url(#cubeGlow)" opacity="0.85"/>
    <rect x="10" y="10" width="50" height="50" rx="5" fill="url(#cube4)" filter="url(#cubeGlow)" opacity="0.6"/>
  </g>
  <!-- Cube 5 - Middle Middle -->
  <g transform="translate(140, 110) rotate(10)">
    <rect x="0" y="0" width="50" height="50" rx="5" fill="url(#cube5)" filter="url(#cubeGlow)" opacity="0.85"/>
    <rect x="10" y="10" width="50" height="50" rx="5" fill="url(#cube5)" filter="url(#cubeGlow)" opacity="0.6"/>
  </g>
  <!-- Cube 6 - Middle Right -->
  <g transform="translate(230, 130) rotate(-20)">
    <rect x="0" y="0" width="50" height="50" rx="5" fill="url(#cube6)" filter="url(#cubeGlow)" opacity="0.85"/>
    <rect x="10" y="10" width="50" height="50" rx="5" fill="url(#cube6)" filter="url(#cubeGlow)" opacity="0.6"/>
  </g>
  <!-- Cube 7 - Bottom Left -->
  <g transform="translate(70, 210) rotate(15)">
    <rect x="0" y="0" width="50" height="50" rx="5" fill="url(#cube4)" filter="url(#cubeGlow)" opacity="0.85"/>
    <rect x="10" y="10" width="50" height="50" rx="5" fill="url(#cube4)" filter="url(#cubeGlow)" opacity="0.6"/>
  </g>
  <!-- Cube 8 - Bottom Middle -->
  <g transform="translate(160, 200) rotate(-10)">
    <rect x="0" y="0" width="50" height="50" rx="5" fill="url(#cube5)" filter="url(#cubeGlow)" opacity="0.85"/>
    <rect x="10" y="10" width="50" height="50" rx="5" fill="url(#cube5)" filter="url(#cubeGlow)" opacity="0.6"/>
  </g>
  <!-- Cube 9 - Bottom Right -->
  <g transform="translate(250, 220) rotate(20)">
    <rect x="0" y="0" width="50" height="50" rx="5" fill="url(#cube3)" filter="url(#cubeGlow)" opacity="0.85"/>
    <rect x="10" y="10" width="50" height="50" rx="5" fill="url(#cube3)" filter="url(#cubeGlow)" opacity="0.6"/>
  </g>
</svg>

